{
    "asset" : {
        "generator" : "Khronos glTF Blender I/O v3.3.27",
        "version" : "2.0"
    },
    "extensionsUsed" : [
        "KHR_materials_transmission",
        "KHR_materials_ior"
    ],
    "scene" : 0,
    "scenes" : [
        {
            "extras" : {
                "scatter_properties" : {},
                "assets used" : {},
                "uiListCollec" : [
                    {
                        "idx" : 0,
                        "val" : 1.2535622119903564,
                        "color" : [
                            0.0,
                            0.0,
                            0.0,
                            1.0
                        ]
                    },
                    {
                        "idx" : 1,
                        "val" : 1.7470264434814453,
                        "color" : [
                            1.0,
                            1.0,
                            1.0,
                            1.0
                        ]
                    }
                ],
                "uuid" : "e4dbc76a-6a72-475d-835c-95b9e442b91d",
                "assets reported" : {}
            },
            "name" : "Scene",
            "nodes" : [
                0,
                1,
                2,
                3,
                4,
                5,
                6
            ]
        }
    ],
    "nodes" : [
        {
            "extras" : {
                "ant_landscape" : {}
            },
            "mesh" : 0,
            "name" : "Cube.004",
            "translation" : [
                0.08037581294775009,
                3.185131311416626,
                5.446821689605713
            ]
        },
        {
            "extras" : {
                "ant_landscape" : {}
            },
            "mesh" : 1,
            "name" : "Cube.005",
            "rotation" : [
                0,
                -0.7071065902709961,
                0,
                0.7071069478988647
            ],
            "translation" : [
                0.08081354200839996,
                1.0011157989501953,
                5.454333782196045
            ]
        },
        {
            "extras" : {
                "ant_landscape" : {}
            },
            "mesh" : 2,
            "name" : "Text.001",
            "rotation" : [
                0.27059823274612427,
                -0.6532813906669617,
                0.6532814502716064,
                0.2705982029438019
            ],
            "scale" : [
                1.7780448198318481,
                1.7780448198318481,
                1.7780448198318481
            ],
            "translation" : [
                -0.6348778605461121,
                0.3606593608856201,
                4.087729454040527
            ]
        },
        {
            "extras" : {
                "ant_landscape" : {}
            },
            "mesh" : 3,
            "name" : "Text.002",
            "rotation" : [
                0.6532813906669617,
                0.2705983519554138,
                -0.2705983817577362,
                0.6532813310623169
            ],
            "scale" : [
                1.7780449390411377,
                1.7780449390411377,
                1.7780448198318481
            ],
            "translation" : [
                0.8803566694259644,
                0.3606593608856201,
                6.965340614318848
            ]
        },
        {
            "extras" : {
                "ant_landscape" : {}
            },
            "mesh" : 4,
            "name" : "Cube.006",
            "rotation" : [
                0,
                0.7071120142936707,
                0,
                0.7071015238761902
            ],
            "translation" : [
                0.11684584617614746,
                5.337488174438477,
                5.443173408508301
            ]
        },
        {
            "extras" : {
                "ant_landscape" : {}
            },
            "mesh" : 5,
            "name" : "Text",
            "rotation" : [
                0.6532797813415527,
                0.27060216665267944,
                -0.27060216665267944,
                0.6532797813415527
            ],
            "scale" : [
                3.024399757385254,
                2.3298637866973877,
                2.3298637866973877
            ],
            "translation" : [
                0.8792874813079834,
                4.694187641143799,
                6.985511779785156
            ]
        },
        {
            "extras" : {
                "ant_landscape" : {}
            },
            "mesh" : 6,
            "name" : "Text.003",
            "rotation" : [
                0.27060261368751526,
                -0.6532796025276184,
                0.6532796025276184,
                0.27060258388519287
            ],
            "scale" : [
                3.024399757385254,
                2.3298637866973877,
                2.3298637866973877
            ],
            "translation" : [
                -0.6367219686508179,
                4.738703727722168,
                3.9102344512939453
            ]
        }
    ],
    "materials" : [
        {
            "doubleSided" : true,
            "extensions" : {
                "KHR_materials_transmission" : {
                    "transmissionFactor" : 1
                },
                "KHR_materials_ior" : {
                    "ior" : 1.4500000476837158
                }
            },
            "name" : "Material.004",
            "pbrMetallicRoughness" : {
                "baseColorFactor" : [
                    0.8468731641769409,
                    0.701101541519165,
                    0.07818761467933655,
                    1
                ],
                "metallicFactor" : 0,
                "roughnessFactor" : 0.5
            }
        },
        {
            "doubleSided" : true,
            "name" : "JS",
            "pbrMetallicRoughness" : {
                "baseColorFactor" : [
                    0,
                    0,
                    0,
                    1
                ],
                "metallicFactor" : 0,
                "roughnessFactor" : 0.5
            }
        },
        {
            "doubleSided" : true,
            "extensions" : {
                "KHR_materials_transmission" : {
                    "transmissionFactor" : 1
                },
                "KHR_materials_ior" : {
                    "ior" : 1.4500000476837158
                }
            },
            "name" : "HTML",
            "pbrMetallicRoughness" : {
                "baseColorFactor" : [
                    0.8468735814094543,
                    0.40230488777160645,
                    0.17749261856079102,
                    1
                ],
                "metallicFactor" : 0,
                "roughnessFactor" : 0.5
            }
        },
        {
            "doubleSided" : true,
            "name" : "CSS",
            "pbrMetallicRoughness" : {
                "baseColorFactor" : [
                    0.9999987483024597,
                    0.999998927116394,
                    1,
                    1
                ],
                "metallicFactor" : 0,
                "roughnessFactor" : 0.5
            }
        },
        {
            "doubleSided" : true,
            "extensions" : {
                "KHR_materials_transmission" : {
                    "transmissionFactor" : 1
                },
                "KHR_materials_ior" : {
                    "ior" : 1.4500000476837158
                }
            },
            "name" : "CSS.001",
            "pbrMetallicRoughness" : {
                "baseColorFactor" : [
                    0,
                    0.18439914286136627,
                    1,
                    1
                ],
                "metallicFactor" : 0,
                "roughnessFactor" : 0.5
            }
        }
    ],
    "meshes" : [
        {
            "name" : "Cube.008",
            "primitives" : [
                {
                    "attributes" : {
                        "POSITION" : 0,
                        "TEXCOORD_0" : 1
                    },
                    "indices" : 2,
                    "material" : 0
                },
                {
                    "attributes" : {
                        "POSITION" : 3,
                        "TEXCOORD_0" : 4
                    },
                    "indices" : 5,
                    "material" : 1
                }
            ]
        },
        {
            "name" : "Cube.009",
            "primitives" : [
                {
                    "attributes" : {
                        "POSITION" : 6,
                        "TEXCOORD_0" : 7
                    },
                    "indices" : 8,
                    "material" : 2
                },
                {
                    "attributes" : {
                        "POSITION" : 9,
                        "TEXCOORD_0" : 10
                    },
                    "indices" : 11
                }
            ]
        },
        {
            "name" : "Text.003",
            "primitives" : [
                {
                    "attributes" : {
                        "POSITION" : 12,
                        "TEXCOORD_0" : 13
                    },
                    "indices" : 14,
                    "material" : 3
                }
            ]
        },
        {
            "name" : "Text.004",
            "primitives" : [
                {
                    "attributes" : {
                        "POSITION" : 15,
                        "TEXCOORD_0" : 16
                    },
                    "indices" : 14
                }
            ]
        },
        {
            "name" : "Cube.011",
            "primitives" : [
                {
                    "attributes" : {
                        "POSITION" : 17,
                        "TEXCOORD_0" : 18
                    },
                    "indices" : 19,
                    "material" : 4
                }
            ]
        },
        {
            "name" : "Text.005",
            "primitives" : [
                {
                    "attributes" : {
                        "POSITION" : 20,
                        "TEXCOORD_0" : 21
                    },
                    "indices" : 22,
                    "material" : 3
                }
            ]
        },
        {
            "name" : "Text.006",
            "primitives" : [
                {
                    "attributes" : {
                        "POSITION" : 23,
                        "TEXCOORD_0" : 24
                    },
                    "indices" : 22,
                    "material" : 3
                }
            ]
        }
    ],
    "accessors" : [
        {
            "bufferView" : 0,
            "componentType" : 5126,
            "count" : 2658,
            "max" : [
                1,
                1,
                1
            ],
            "min" : [
                -1,
                -1,
                -1
            ],
            "type" : "VEC3"
        },
        {
            "bufferView" : 1,
            "componentType" : 5126,
            "count" : 2658,
            "type" : "VEC2"
        },
        {
            "bufferView" : 2,
            "componentType" : 5123,
            "count" : 8040,
            "type" : "SCALAR"
        },
        {
            "bufferView" : 3,
            "componentType" : 5126,
            "count" : 9611,
            "max" : [
                1,
                1,
                1
            ],
            "min" : [
                -1,
                -1,
                -1
            ],
            "type" : "VEC3"
        },
        {
            "bufferView" : 4,
            "componentType" : 5126,
            "count" : 9611,
            "type" : "VEC2"
        },
        {
            "bufferView" : 5,
            "componentType" : 5123,
            "count" : 23700,
            "type" : "SCALAR"
        },
        {
            "bufferView" : 6,
            "componentType" : 5126,
            "count" : 189,
            "max" : [
                1.0000004768371582,
                1,
                0.9999995231628418
            ],
            "min" : [
                -0.9999995231628418,
                -1,
                -1.0000004768371582
            ],
            "type" : "VEC3"
        },
        {
            "bufferView" : 7,
            "componentType" : 5126,
            "count" : 189,
            "type" : "VEC2"
        },
        {
            "bufferView" : 8,
            "componentType" : 5123,
            "count" : 549,
            "type" : "SCALAR"
        },
        {
            "bufferView" : 9,
            "componentType" : 5126,
            "count" : 421,
            "max" : [
                -0.07258248329162598,
                0.5771889686584473,
                0.9999995231628418
            ],
            "min" : [
                -0.9999995231628418,
                -0.7319912910461426,
                0.0370061993598938
            ],
            "type" : "VEC3"
        },
        {
            "bufferView" : 10,
            "componentType" : 5126,
            "count" : 421,
            "type" : "VEC2"
        },
        {
            "bufferView" : 11,
            "componentType" : 5123,
            "count" : 1485,
            "type" : "SCALAR"
        },
        {
            "bufferView" : 12,
            "componentType" : 5126,
            "count" : 328,
            "max" : [
                0.5284386873245239,
                0.012970924377441406,
                0.051480598747730255
            ],
            "min" : [
                -0.03901468217372894,
                -0.5007961988449097,
                -0.6848227381706238
            ],
            "type" : "VEC3"
        },
        {
            "bufferView" : 13,
            "componentType" : 5126,
            "count" : 328,
            "type" : "VEC2"
        },
        {
            "bufferView" : 14,
            "componentType" : 5123,
            "count" : 1956,
            "type" : "SCALAR"
        },
        {
            "bufferView" : 15,
            "componentType" : 5126,
            "count" : 328,
            "max" : [
                0.5284386873245239,
                0.012970924377441406,
                0.051480598747730255
            ],
            "min" : [
                -0.03901468217372894,
                -0.5007961988449097,
                -0.6848227381706238
            ],
            "type" : "VEC3"
        },
        {
            "bufferView" : 16,
            "componentType" : 5126,
            "count" : 328,
            "type" : "VEC2"
        },
        {
            "bufferView" : 17,
            "componentType" : 5126,
            "count" : 14,
            "max" : [
                1,
                1,
                1
            ],
            "min" : [
                -1,
                -1,
                -1
            ],
            "type" : "VEC3"
        },
        {
            "bufferView" : 18,
            "componentType" : 5126,
            "count" : 14,
            "type" : "VEC2"
        },
        {
            "bufferView" : 19,
            "componentType" : 5123,
            "count" : 36,
            "type" : "SCALAR"
        },
        {
            "bufferView" : 20,
            "componentType" : 5126,
            "count" : 1198,
            "max" : [
                0.35690048336982727,
                0,
                0.006033182609826326
            ],
            "min" : [
                0.014328808523714542,
                -0.34329745173454285,
                -0.5279034972190857
            ],
            "type" : "VEC3"
        },
        {
            "bufferView" : 21,
            "componentType" : 5126,
            "count" : 1198,
            "type" : "VEC2"
        },
        {
            "bufferView" : 22,
            "componentType" : 5123,
            "count" : 6096,
            "type" : "SCALAR"
        },
        {
            "bufferView" : 23,
            "componentType" : 5126,
            "count" : 1198,
            "max" : [
                0.35690048336982727,
                0,
                0.006033182609826326
            ],
            "min" : [
                0.014328808523714542,
                -0.34329745173454285,
                -0.5279034972190857
            ],
            "type" : "VEC3"
        },
        {
            "bufferView" : 24,
            "componentType" : 5126,
            "count" : 1198,
            "type" : "VEC2"
        }
    ],
    "bufferViews" : [
        {
            "buffer" : 0,
            "byteLength" : 31896,
            "byteOffset" : 0,
            "target" : 34962
        },
        {
            "buffer" : 0,
            "byteLength" : 21264,
            "byteOffset" : 31896,
            "target" : 34962
        },
        {
            "buffer" : 0,
            "byteLength" : 16080,
            "byteOffset" : 53160,
            "target" : 34963
        },
        {
            "buffer" : 0,
            "byteLength" : 115332,
            "byteOffset" : 69240,
            "target" : 34962
        },
        {
            "buffer" : 0,
            "byteLength" : 76888,
            "byteOffset" : 184572,
            "target" : 34962
        },
        {
            "buffer" : 0,
            "byteLength" : 47400,
            "byteOffset" : 261460,
            "target" : 34963
        },
        {
            "buffer" : 0,
            "byteLength" : 2268,
            "byteOffset" : 308860,
            "target" : 34962
        },
        {
            "buffer" : 0,
            "byteLength" : 1512,
            "byteOffset" : 311128,
            "target" : 34962
        },
        {
            "buffer" : 0,
            "byteLength" : 1098,
            "byteOffset" : 312640,
            "target" : 34963
        },
        {
            "buffer" : 0,
            "byteLength" : 5052,
            "byteOffset" : 313740,
            "target" : 34962
        },
        {
            "buffer" : 0,
            "byteLength" : 3368,
            "byteOffset" : 318792,
            "target" : 34962
        },
        {
            "buffer" : 0,
            "byteLength" : 2970,
            "byteOffset" : 322160,
            "target" : 34963
        },
        {
            "buffer" : 0,
            "byteLength" : 3936,
            "byteOffset" : 325132,
            "target" : 34962
        },
        {
            "buffer" : 0,
            "byteLength" : 2624,
            "byteOffset" : 329068,
            "target" : 34962
        },
        {
            "buffer" : 0,
            "byteLength" : 3912,
            "byteOffset" : 331692,
            "target" : 34963
        },
        {
            "buffer" : 0,
            "byteLength" : 3936,
            "byteOffset" : 335604,
            "target" : 34962
        },
        {
            "buffer" : 0,
            "byteLength" : 2624,
            "byteOffset" : 339540,
            "target" : 34962
        },
        {
            "buffer" : 0,
            "byteLength" : 168,
            "byteOffset" : 342164,
            "target" : 34962
        },
        {
            "buffer" : 0,
            "byteLength" : 112,
            "byteOffset" : 342332,
            "target" : 34962
        },
        {
            "buffer" : 0,
            "byteLength" : 72,
            "byteOffset" : 342444,
            "target" : 34963
        },
        {
            "buffer" : 0,
            "byteLength" : 14376,
            "byteOffset" : 342516,
            "target" : 34962
        },
        {
            "buffer" : 0,
            "byteLength" : 9584,
            "byteOffset" : 356892,
            "target" : 34962
        },
        {
            "buffer" : 0,
            "byteLength" : 12192,
            "byteOffset" : 366476,
            "target" : 34963
        },
        {
            "buffer" : 0,
            "byteLength" : 14376,
            "byteOffset" : 378668,
            "target" : 34962
        },
        {
            "buffer" : 0,
            "byteLength" : 9584,
            "byteOffset" : 393044,
            "target" : 34962
        }
    ],
    "buffers" : [
        {
            "byteLength" : 402628,
            "uri" : "data:application/octet-stream;base64,"
        }
    ]
}
