{
	"asset":{
		"version":"2.0",
		"generator":"Created using the official Cinema 4D glTF Exporter 1.000x284978"
	},
	"scenes":[{
		"nodes":[0,
		1,
		2]
	}],
	"accessors":[{
		"count":3804,
		"type":"SCALAR",
		"bufferView":0,
		"componentType":5123,
		"byteOffset":0,
		"min":[0],
		"max":[635]
	},
	{
		"count":636,
		"type":"VEC3",
		"bufferView":1,
		"componentType":5126,
		"byteOffset":0,
		"min":[-50.0,
		149.24331665039063,
		-50.0],
		"max":[50.0,
		249.24331665039063,
		50.0]
	},
	{
		"count":6960,
		"type":"SCALAR",
		"bufferView":2,
		"componentType":5123,
		"byteOffset":0,
		"min":[0],
		"max":[1161]
	},
	{
		"count":1162,
		"type":"VEC3",
		"bufferView":3,
		"componentType":5126,
		"byteOffset":0,
		"min":[-50.0,
		49.6353874206543,
		-50.0],
		"max":[50.0,
		149.63539123535157,
		50.0]
	},
	{
		"count":1080,
		"type":"SCALAR",
		"bufferView":4,
		"componentType":5123,
		"byteOffset":0,
		"min":[0],
		"max":[181]
	},
	{
		"count":182,
		"type":"VEC3",
		"bufferView":5,
		"componentType":5126,
		"byteOffset":0,
		"min":[-50.0,
		-48.70390701293945,
		-50.0],
		"max":[50.0,
		51.29609298706055,
		50.0]
	}],
	"nodes":[{
		"name":"Boole.1",
		"mesh":0
	},
	{
		"name":"Boole.2",
		"mesh":1
	},
	{
		"name":"Boole",
		"mesh":2
	}],
	"meshes":[{
		"primitives":[{
			"attributes":{
				"POSITION":1
			},
			"indices":0,
			"material":0
		}],
		"name":"Boole.1"
	},
	{
		"primitives":[{
			"attributes":{
				"POSITION":3
			},
			"indices":2,
			"material":1
		}],
		"name":"Boole.2"
	},
	{
		"primitives":[{
			"attributes":{
				"POSITION":5
			},
			"indices":4,
			"material":2
		}],
		"name":"Boole"
	}],
	"bufferViews":[{
		"buffer":0,
		"byteOffset":0,
		"byteLength":7608,
		"target":34963
	},
	{
		"buffer":0,
		"byteOffset":7608,
		"byteLength":7632,
		"target":34962
	},
	{
		"buffer":1,
		"byteOffset":0,
		"byteLength":13920,
		"target":34963
	},
	{
		"buffer":1,
		"byteOffset":13920,
		"byteLength":13944,
		"target":34962
	},
	{
		"buffer":2,
		"byteOffset":0,
		"byteLength":2160,
		"target":34963
	},
	{
		"buffer":2,
		"byteOffset":2160,
		"byteLength":2184,
		"target":34962
	}],
	"buffers":[{
		"uri":"data:application/octet-stream;base64,",
		"byteLength":15240
	},
	{
		"uri":"data:application/octet-stream;base64,",
		"byteLength":27864
	},
	{
		"uri":"data:application/octet-stream;base64,",
		"byteLength":4344
	}],
	"materials":[{
		"pbrMetallicRoughness":{
			"baseColorFactor":[1.0,
			1.0,
			1.0,
			0.0],
			"metallicFactor":0.0,
			"roughnessFactor":0.5
		},
		"emissiveFactor":[0.0,
		0.0,
		0.0],
		"name":"Mat.2",
		"alphaMode":"BLEND",
		"doubleSided":false
	},
	{
		"pbrMetallicRoughness":{
			"baseColorFactor":[1.0,
			1.0,
			1.0,
			0.0],
			"metallicFactor":0.0,
			"roughnessFactor":0.5
		},
		"emissiveFactor":[0.0,
		0.0,
		0.0],
		"name":"Mat.1",
		"alphaMode":"BLEND",
		"doubleSided":false
	},
	{
		"pbrMetallicRoughness":{
			"baseColorFactor":[1.0,
			1.0,
			1.0,
			0.0],
			"metallicFactor":0.0,
			"roughnessFactor":0.5
		},
		"emissiveFactor":[0.0,
		0.0,
		0.0],
		"name":"Mat",
		"alphaMode":"BLEND",
		"doubleSided":false
	}]
}