{
    "asset" : {
        "generator" : "Khronos glTF Blender I/O v3.3.27",
        "version" : "2.0"
    },
    "scene" : 0,
    "scenes" : [
        {
            "extras" : {
                "scatter_properties" : {},
                "assets used" : {},
                "uiListCollec" : [
                    {
                        "idx" : 0,
                        "val" : 1.2535622119903564,
                        "color" : [
                            0.0,
                            0.0,
                            0.0,
                            1.0
                        ]
                    },
                    {
                        "idx" : 1,
                        "val" : 1.7470264434814453,
                        "color" : [
                            1.0,
                            1.0,
                            1.0,
                            1.0
                        ]
                    }
                ],
                "uuid" : "e4dbc76a-6a72-475d-835c-95b9e442b91d",
                "assets reported" : {}
            },
            "name" : "Scene",
            "nodes" : [
                0,
                1,
                2,
                3,
                4,
                5,
                6
            ]
        }
    ],
    "nodes" : [
        {
            "extras" : {
                "ant_landscape" : {}
            },
            "mesh" : 0,
            "name" : "Cylinder.007",
            "rotation" : [
                0,
                0.948327898979187,
                0,
                0.317292183637619
            ],
            "scale" : [
                2.2293388843536377,
                0.5114988088607788,
                2.2293388843536377
            ],
            "translation" : [
                -1.1290843486785889,
                0.5753006935119629,
                -1.417525053024292
            ]
        },
        {
            "extras" : {
                "ant_landscape" : {}
            },
            "mesh" : 1,
            "name" : "Sphere.001",
            "rotation" : [
                0.5533552765846252,
                0.5863980054855347,
                0.4287636876106262,
                0.4075500965118408
            ],
            "scale" : [
                -0.06220550835132599,
                -0.06220551207661629,
                -0.06220551207661629
            ],
            "translation" : [
                -0.3651420474052429,
                0.696857213973999,
                0.6769855618476868
            ]
        },
        {
            "extras" : {
                "ant_landscape" : {}
            },
            "mesh" : 2,
            "name" : "Cylinder.008",
            "rotation" : [
                0,
                0.948327898979187,
                0,
                0.317292183637619
            ],
            "scale" : [
                2.2293388843536377,
                0.5114988088607788,
                2.2293388843536377
            ],
            "translation" : [
                -1.1290843486785889,
                1.7420092821121216,
                -1.417525053024292
            ]
        },
        {
            "extras" : {
                "ant_landscape" : {}
            },
            "mesh" : 3,
            "name" : "Sphere.002",
            "rotation" : [
                0.5533552765846252,
                0.5863980054855347,
                0.4287636876106262,
                0.4075500965118408
            ],
            "scale" : [
                -0.06220550835132599,
                -0.06220551207661629,
                -0.06220551207661629
            ],
            "translation" : [
                -0.3651420474052429,
                1.8635658025741577,
                0.6769855618476868
            ]
        },
        {
            "extras" : {
                "ant_landscape" : {}
            },
            "mesh" : 4,
            "name" : "Cylinder.009",
            "rotation" : [
                0,
                0.948327898979187,
                0,
                0.317292183637619
            ],
            "scale" : [
                2.2293388843536377,
                0.5114988088607788,
                2.2293388843536377
            ],
            "translation" : [
                -1.1290843486785889,
                2.919421672821045,
                -1.417525053024292
            ]
        },
        {
            "extras" : {
                "ant_landscape" : {}
            },
            "mesh" : 5,
            "name" : "Sphere.003",
            "rotation" : [
                0.5533552765846252,
                0.5863980054855347,
                0.4287636876106262,
                0.4075500965118408
            ],
            "scale" : [
                -0.06220550835132599,
                -0.06220551207661629,
                -0.06220551207661629
            ],
            "translation" : [
                -0.3651420474052429,
                3.040977954864502,
                0.6769855618476868
            ]
        },
        {
            "extras" : {
                "ant_landscape" : {}
            },
            "mesh" : 6,
            "name" : "Plane.003",
            "rotation" : [
                0.6327793002128601,
                0.29615518450737,
                -0.31024929881095886,
                0.644692063331604
            ],
            "scale" : [
                18,
                2,
                11
            ],
            "translation" : [
                -0.07418006658554077,
                4.935774803161621,
                -0.1547631025314331
            ]
        }
    ],
    "materials" : [
        {
            "doubleSided" : true,
            "name" : "Sql inside",
            "pbrMetallicRoughness" : {
                "baseColorFactor" : [
                    0.13360874354839325,
                    0.13360874354839325,
                    0.13360874354839325,
                    1
                ],
                "metallicFactor" : 0,
                "roughnessFactor" : 0.5
            }
        },
        {
            "doubleSided" : true,
            "name" : "base-off",
            "pbrMetallicRoughness" : {
                "baseColorFactor" : [
                    0.0034167326521128416,
                    1,
                    0.1091001108288765,
                    1
                ],
                "metallicFactor" : 0,
                "roughnessFactor" : 0.30000001192092896
            }
        },
        {
            "alphaMode" : "BLEND",
            "doubleSided" : true,
            "name" : "postgres",
            "pbrMetallicRoughness" : {
                "baseColorTexture" : {
                    "index" : 0
                },
                "metallicFactor" : 0,
                "roughnessFactor" : 0.5
            }
        }
    ],
    "meshes" : [
        {
            "name" : "Cylinder.014",
            "primitives" : [
                {
                    "attributes" : {
                        "POSITION" : 0,
                        "TEXCOORD_0" : 1
                    },
                    "indices" : 2,
                    "material" : 0
                }
            ]
        },
        {
            "name" : "Sphere.003",
            "primitives" : [
                {
                    "attributes" : {
                        "POSITION" : 3,
                        "TEXCOORD_0" : 4
                    },
                    "indices" : 5,
                    "material" : 1
                }
            ]
        },
        {
            "name" : "Cylinder.017",
            "primitives" : [
                {
                    "attributes" : {
                        "POSITION" : 6,
                        "TEXCOORD_0" : 7
                    },
                    "indices" : 2,
                    "material" : 0
                }
            ]
        },
        {
            "name" : "Sphere.004",
            "primitives" : [
                {
                    "attributes" : {
                        "POSITION" : 8,
                        "TEXCOORD_0" : 9
                    },
                    "indices" : 5,
                    "material" : 1
                }
            ]
        },
        {
            "name" : "Cylinder.018",
            "primitives" : [
                {
                    "attributes" : {
                        "POSITION" : 10,
                        "TEXCOORD_0" : 11
                    },
                    "indices" : 12,
                    "material" : 0
                }
            ]
        },
        {
            "name" : "Sphere.005",
            "primitives" : [
                {
                    "attributes" : {
                        "POSITION" : 13,
                        "TEXCOORD_0" : 14
                    },
                    "indices" : 5,
                    "material" : 1
                }
            ]
        },
        {
            "name" : "Plane.002",
            "primitives" : [
                {
                    "attributes" : {
                        "POSITION" : 15,
                        "TEXCOORD_0" : 16
                    },
                    "indices" : 17,
                    "material" : 2
                }
            ]
        }
    ],
    "textures" : [
        {
            "sampler" : 0,
            "source" : 0
        }
    ],
    "images" : [
        {
            "bufferView" : 18,
            "mimeType" : "image/png",
            "name" : "pngwing.com(3)"
        }
    ],
    "accessors" : [
        {
            "bufferView" : 0,
            "componentType" : 5126,
            "count" : 874,
            "max" : [
                0.9999648332595825,
                0.9999998807907104,
                0.9998590350151062
            ],
            "min" : [
                -0.9999648332595825,
                -1.0000001192092896,
                -1.0000001192092896
            ],
            "type" : "VEC3"
        },
        {
            "bufferView" : 1,
            "componentType" : 5126,
            "count" : 874,
            "type" : "VEC2"
        },
        {
            "bufferView" : 2,
            "componentType" : 5123,
            "count" : 2604,
            "type" : "SCALAR"
        },
        {
            "bufferView" : 3,
            "componentType" : 5126,
            "count" : 1110,
            "max" : [
                0.9999998807907104,
                0,
                0.9999996423721313
            ],
            "min" : [
                -0.9999995231628418,
                -1,
                -1
            ],
            "type" : "VEC3"
        },
        {
            "bufferView" : 4,
            "componentType" : 5126,
            "count" : 1110,
            "type" : "VEC2"
        },
        {
            "bufferView" : 5,
            "componentType" : 5123,
            "count" : 5994,
            "type" : "SCALAR"
        },
        {
            "bufferView" : 6,
            "componentType" : 5126,
            "count" : 874,
            "max" : [
                0.9999648332595825,
                0.9999998807907104,
                0.9998590350151062
            ],
            "min" : [
                -0.9999648332595825,
                -1.0000001192092896,
                -1.0000001192092896
            ],
            "type" : "VEC3"
        },
        {
            "bufferView" : 7,
            "componentType" : 5126,
            "count" : 874,
            "type" : "VEC2"
        },
        {
            "bufferView" : 8,
            "componentType" : 5126,
            "count" : 1110,
            "max" : [
                0.9999998807907104,
                0,
                0.9999996423721313
            ],
            "min" : [
                -0.9999995231628418,
                -1,
                -1
            ],
            "type" : "VEC3"
        },
        {
            "bufferView" : 9,
            "componentType" : 5126,
            "count" : 1110,
            "type" : "VEC2"
        },
        {
            "bufferView" : 10,
            "componentType" : 5126,
            "count" : 880,
            "max" : [
                0.9999648332595825,
                0.9999998807907104,
                0.9998590350151062
            ],
            "min" : [
                -0.9999648332595825,
                -1.0000001192092896,
                -1.0000001192092896
            ],
            "type" : "VEC3"
        },
        {
            "bufferView" : 11,
            "componentType" : 5126,
            "count" : 880,
            "type" : "VEC2"
        },
        {
            "bufferView" : 12,
            "componentType" : 5123,
            "count" : 2604,
            "type" : "SCALAR"
        },
        {
            "bufferView" : 13,
            "componentType" : 5126,
            "count" : 1110,
            "max" : [
                0.9999998807907104,
                0,
                0.9999996423721313
            ],
            "min" : [
                -0.9999995231628418,
                -1,
                -1
            ],
            "type" : "VEC3"
        },
        {
            "bufferView" : 14,
            "componentType" : 5126,
            "count" : 1110,
            "type" : "VEC2"
        },
        {
            "bufferView" : 15,
            "componentType" : 5126,
            "count" : 8,
            "max" : [
                0.14047549664974213,
                -0.06079831346869469,
                0.12516085803508759
            ],
            "min" : [
                -0.1217474713921547,
                -0.10217466950416565,
                -0.13463999330997467
            ],
            "type" : "VEC3"
        },
        {
            "bufferView" : 16,
            "componentType" : 5126,
            "count" : 8,
            "type" : "VEC2"
        },
        {
            "bufferView" : 17,
            "componentType" : 5123,
            "count" : 30,
            "type" : "SCALAR"
        }
    ],
    "bufferViews" : [
        {
            "buffer" : 0,
            "byteLength" : 10488,
            "byteOffset" : 0,
            "target" : 34962
        },
        {
            "buffer" : 0,
            "byteLength" : 6992,
            "byteOffset" : 10488,
            "target" : 34962
        },
        {
            "buffer" : 0,
            "byteLength" : 5208,
            "byteOffset" : 17480,
            "target" : 34963
        },
        {
            "buffer" : 0,
            "byteLength" : 13320,
            "byteOffset" : 22688,
            "target" : 34962
        },
        {
            "buffer" : 0,
            "byteLength" : 8880,
            "byteOffset" : 36008,
            "target" : 34962
        },
        {
            "buffer" : 0,
            "byteLength" : 11988,
            "byteOffset" : 44888,
            "target" : 34963
        },
        {
            "buffer" : 0,
            "byteLength" : 10488,
            "byteOffset" : 56876,
            "target" : 34962
        },
        {
            "buffer" : 0,
            "byteLength" : 6992,
            "byteOffset" : 67364,
            "target" : 34962
        },
        {
            "buffer" : 0,
            "byteLength" : 13320,
            "byteOffset" : 74356,
            "target" : 34962
        },
        {
            "buffer" : 0,
            "byteLength" : 8880,
            "byteOffset" : 87676,
            "target" : 34962
        },
        {
            "buffer" : 0,
            "byteLength" : 10560,
            "byteOffset" : 96556,
            "target" : 34962
        },
        {
            "buffer" : 0,
            "byteLength" : 7040,
            "byteOffset" : 107116,
            "target" : 34962
        },
        {
            "buffer" : 0,
            "byteLength" : 5208,
            "byteOffset" : 114156,
            "target" : 34963
        },
        {
            "buffer" : 0,
            "byteLength" : 13320,
            "byteOffset" : 119364,
            "target" : 34962
        },
        {
            "buffer" : 0,
            "byteLength" : 8880,
            "byteOffset" : 132684,
            "target" : 34962
        },
        {
            "buffer" : 0,
            "byteLength" : 96,
            "byteOffset" : 141564,
            "target" : 34962
        },
        {
            "buffer" : 0,
            "byteLength" : 64,
            "byteOffset" : 141660,
            "target" : 34962
        },
        {
            "buffer" : 0,
            "byteLength" : 60,
            "byteOffset" : 141724,
            "target" : 34963
        },
        {
            "buffer" : 0,
            "byteLength" : 308512,
            "byteOffset" : 141784
        }
    ],
    "samplers" : [
        {
            "magFilter" : 9729,
            "minFilter" : 9987
        }
    ],
    "buffers" : [
        {
            "byteLength" : 450296,
            "uri" : "data:application/octet-stream;base64,"
        }
    ]
}
