{
    "asset" : {
        "generator" : "Khronos glTF Blender I/O v3.3.27",
        "version" : "2.0"
    },
    "extensionsUsed" : [
        "KHR_materials_transmission",
        "KHR_materials_ior"
    ],
    "scene" : 0,
    "scenes" : [
        {
            "extras" : {
                "scatter_properties" : {},
                "assets used" : {},
                "uiListCollec" : [
                    {
                        "idx" : 0,
                        "val" : 1.2535622119903564,
                        "color" : [
                            0.0,
                            0.0,
                            0.0,
                            1.0
                        ]
                    },
                    {
                        "idx" : 1,
                        "val" : 1.7470264434814453,
                        "color" : [
                            1.0,
                            1.0,
                            1.0,
                            1.0
                        ]
                    }
                ],
                "uuid" : "e4dbc76a-6a72-475d-835c-95b9e442b91d",
                "assets reported" : {}
            },
            "name" : "Scene",
            "nodes" : [
                0,
                1
            ]
        }
    ],
    "nodes" : [
        {
            "mesh" : 0,
            "name" : "Resume",
            "scale" : [
                0.10000002384185791,
                2,
                2
            ],
            "translation" : [
                0.011572599411010742,
                6.986606597900391,
                -13.596508026123047
            ]
        },
        {
            "mesh" : 1,
            "name" : "paper-icon",
            "rotation" : [
                0.5,
                0.5,
                -0.5,
                0.5
            ],
            "scale" : [
                3.704186201095581,
                3.704186201095581,
                3.704186201095581
            ],
            "translation" : [
                0.2748951315879822,
                7.043792724609375,
                -13.601454734802246
            ]
        }
    ],
    "materials" : [
        {
            "doubleSided" : true,
            "extensions" : {
                "KHR_materials_transmission" : {
                    "transmissionFactor" : 1
                },
                "KHR_materials_ior" : {
                    "ior" : 1.4500000476837158
                }
            },
            "name" : "Glass-Resume.002",
            "pbrMetallicRoughness" : {
                "baseColorFactor" : [
                    0.4045650064945221,
                    0.4045650064945221,
                    0.4045650064945221,
                    1
                ],
                "metallicFactor" : 0,
                "roughnessFactor" : 0.30000001192092896
            }
        },
        {
            "alphaMode" : "BLEND",
            "doubleSided" : true,
            "name" : "paper-icon",
            "pbrMetallicRoughness" : {
                "baseColorTexture" : {
                    "index" : 0
                },
                "metallicFactor" : 0,
                "roughnessFactor" : 0.5
            }
        }
    ],
    "meshes" : [
        {
            "name" : "Cube.006",
            "primitives" : [
                {
                    "attributes" : {
                        "POSITION" : 0,
                        "TEXCOORD_0" : 1
                    },
                    "indices" : 2,
                    "material" : 0
                }
            ]
        },
        {
            "name" : "paper-icon",
            "primitives" : [
                {
                    "attributes" : {
                        "POSITION" : 3,
                        "TEXCOORD_0" : 4
                    },
                    "indices" : 5,
                    "material" : 1
                }
            ]
        }
    ],
    "textures" : [
        {
            "sampler" : 0,
            "source" : 0
        }
    ],
    "images" : [
        {
            "bufferView" : 6,
            "mimeType" : "image/png",
            "name" : "paper-icon"
        }
    ],
    "accessors" : [
        {
            "bufferView" : 0,
            "componentType" : 5126,
            "count" : 61920,
            "max" : [
                1,
                1,
                1
            ],
            "min" : [
                -1,
                -1,
                -1
            ],
            "type" : "VEC3"
        },
        {
            "bufferView" : 1,
            "componentType" : 5126,
            "count" : 61920,
            "type" : "VEC2"
        },
        {
            "bufferView" : 2,
            "componentType" : 5123,
            "count" : 367236,
            "type" : "SCALAR"
        },
        {
            "bufferView" : 3,
            "componentType" : 5126,
            "count" : 4,
            "max" : [
                0.40909093618392944,
                -0.04274147003889084,
                0.5000000596046448
            ],
            "min" : [
                -0.4090909957885742,
                -0.042741551995277405,
                -0.5000000596046448
            ],
            "type" : "VEC3"
        },
        {
            "bufferView" : 4,
            "componentType" : 5126,
            "count" : 4,
            "type" : "VEC2"
        },
        {
            "bufferView" : 5,
            "componentType" : 5123,
            "count" : 6,
            "type" : "SCALAR"
        }
    ],
    "bufferViews" : [
        {
            "buffer" : 0,
            "byteLength" : 743040,
            "byteOffset" : 0,
            "target" : 34962
        },
        {
            "buffer" : 0,
            "byteLength" : 495360,
            "byteOffset" : 743040,
            "target" : 34962
        },
        {
            "buffer" : 0,
            "byteLength" : 734472,
            "byteOffset" : 1238400,
            "target" : 34963
        },
        {
            "buffer" : 0,
            "byteLength" : 48,
            "byteOffset" : 1972872,
            "target" : 34962
        },
        {
            "buffer" : 0,
            "byteLength" : 32,
            "byteOffset" : 1972920,
            "target" : 34962
        },
        {
            "buffer" : 0,
            "byteLength" : 12,
            "byteOffset" : 1972952,
            "target" : 34963
        },
        {
            "buffer" : 0,
            "byteLength" : 15863,
            "byteOffset" : 1972964
        }
    ],
    "samplers" : [
        {
            "magFilter" : 9729,
            "minFilter" : 9987,
            "wrapS" : 33071,
            "wrapT" : 33071
        }
    ],
    "buffers" : [
        {
            "byteLength" : 1988828,
            "uri" : "data:application/octet-stream;base64,"
        }
    ]
}
